<svg xmlns="http://www.w3.org/2000/svg" viewBox="0 0 300 260.29"><defs><style>.cls-1{fill:#004d40;}.cls-2{fill:#009688;}</style></defs><title>symbol</title><g id="Layer_2" data-name="Layer 2"><g id="Layer_1-2" data-name="Layer 1"><polygon class="cls-1" points="31.12 243.45 89.06 144.33 42.05 117.19 0 189.55 31.12 243.45"/><polygon class="cls-2" points="9.53 206 124.84 205.8 124.84 260.29 40.76 260.1 9.53 206"/><polygon class="cls-1" points="268.88 243.45 210.94 144.33 257.95 117.19 300 189.55 268.88 243.45"/><polygon class="cls-2" points="290.48 206 175.16 205.8 175.16 260.29 259.24 260.1 290.48 206"/><polygon class="cls-1" points="171.35 0 114.48 99.74 67.46 72.6 109.11 0 171.35 0"/><polygon class="cls-2" points="128.12 0.03 185.6 99.99 232.79 72.74 190.58 0.03 128.12 0.03"/><circle class="cls-2" cx="150" cy="150.15" r="25"/></g></g></svg>