<svg xmlns="http://www.w3.org/2000/svg" viewBox="0 0 314.87 384.47"><defs><style>.cls-1{fill:#004d40;}.cls-2{fill:#009688;}</style></defs><title>logo</title><g id="Layer_2" data-name="Layer 2"><g id="Layer_1-2" data-name="Layer 1"><path d="M21.84,352.44l37.92,31.31H46L9.36,351.36v32.39H0V307H26.76c28.44,0,31.32,13.32,31.32,23.28,0,19.8-15.6,22.2-30.48,22.2ZM27,314.64H9.36v30.72H27.6c19.2,0,21-8,21-15.12S46.44,314.64,27,314.64Z"/><path d="M94.8,384.47c-25.08,0-30.72-15.24-30.72-31.8,0-15.83,6.24-31.07,30.6-31.07,21.48,0,27.84,13.56,27.84,30.6,0,1.67,0,2.88-.12,4.55H73.56c.6,12.12,6.12,20.64,21,20.64,12.84,0,17.52-6.36,18.6-12.84h9.36C121.56,375.11,114.48,384.47,94.8,384.47ZM94,328.8c-15.6,0-20,9.72-20.4,20.76h39.6C113.16,337.8,107.88,328.8,94,328.8Z"/><path d="M181.2,383.75l-1.8-11c-2.4,6.24-9,11.76-23.76,11.76-20.88,0-24.84-11.4-24.84-29V322.32h8.76v33.84c0,13.19,2.76,20.75,18.48,20.75s19.2-7.68,19.2-21.24V322.32h9v61.43Z"/><path d="M224,384.47c-20.28,0-29.4-8-29-23.64h8.76c-.12,10.44,5.88,16.32,20.16,16.32,13.08,0,17.4-5,17.52-9.72.6-15.95-45-6.35-45.24-28.07-.24-10.44,7.44-17.76,26.16-17.76,19.44,0,26.4,9.24,26.4,22.68h-8.4c-.24-9.6-4.92-15.48-18.24-15.48-13,0-17.16,4.44-16.92,10.08.24,14,45.12,5.76,45.12,28.07C250.32,375.71,243,384.47,224,384.47Z"/><path d="M287.16,384.47c-25.08,0-30.72-15.24-30.72-31.8,0-15.83,6.24-31.07,30.6-31.07,21.47,0,27.83,13.56,27.83,30.6,0,1.67,0,2.88-.12,4.55H265.92c.6,12.12,6.12,20.64,21,20.64,12.83,0,17.51-6.36,18.59-12.84h9.36C313.91,375.11,306.83,384.47,287.16,384.47Zm-.84-55.67c-15.6,0-20,9.72-20.4,20.76h39.59C305.51,337.8,300.23,328.8,286.32,328.8Z"/><polygon class="cls-1" points="40.78 243.45 98.72 144.33 51.7 117.19 9.66 189.55 40.78 243.45"/><polygon class="cls-2" points="19.18 206 134.5 205.8 134.5 260.29 50.42 260.1 19.18 206"/><polygon class="cls-1" points="278.54 243.45 220.59 144.33 267.61 117.19 309.66 189.55 278.54 243.45"/><polygon class="cls-2" points="300.13 206 184.82 205.8 184.82 260.29 268.9 260.1 300.13 206"/><polygon class="cls-1" points="138.56 0 195.43 99.74 242.45 72.6 200.8 0 138.56 0"/><polygon class="cls-2" points="181.79 0.03 124.31 99.99 77.12 72.74 119.33 0.03 181.79 0.03"/><circle class="cls-2" cx="159.66" cy="150.15" r="25"/></g></g></svg>