<svg xmlns="http://www.w3.org/2000/svg" viewBox="0 0 314.87 77.52"><title>typo</title><g id="Layer_2" data-name="Layer 2"><g id="Layer_1-2" data-name="Layer 1"><path d="M21.84,45.48,59.76,76.8H46L9.36,44.4V76.8H0V0H26.76C55.2,0,58.08,13.32,58.08,23.28c0,19.8-15.6,22.2-30.48,22.2ZM27,7.68H9.36V38.4H27.6c19.2,0,21-8,21-15.12S46.44,7.68,27,7.68Z"/><path d="M94.8,77.52c-25.08,0-30.72-15.24-30.72-31.8,0-15.84,6.24-31.08,30.6-31.08,21.48,0,27.84,13.56,27.84,30.6,0,1.68,0,2.88-.12,4.56H73.56c.6,12.12,6.12,20.64,21,20.64,12.84,0,17.52-6.36,18.6-12.84h9.36C121.56,68.16,114.48,77.52,94.8,77.52ZM94,21.84c-15.6,0-20,9.72-20.4,20.76h39.6C113.16,30.84,107.88,21.84,94,21.84Z"/><path d="M181.2,76.8l-1.8-11c-2.4,6.24-9,11.76-23.76,11.76-20.88,0-24.84-11.4-24.84-29V15.36h8.76V49.2C139.56,62.4,142.32,70,158,70s19.2-7.68,19.2-21.24V15.36h9V76.8Z"/><path d="M224,77.52c-20.28,0-29.4-8-29-23.64h8.76c-.12,10.44,5.88,16.32,20.16,16.32,13.08,0,17.4-5,17.52-9.72.6-16-45-6.36-45.24-28.08C196,22,203.64,14.64,222.36,14.64c19.44,0,26.4,9.24,26.4,22.68h-8.4c-.24-9.6-4.92-15.48-18.24-15.48-13,0-17.16,4.44-16.92,10.08.24,14,45.12,5.76,45.12,28.08C250.32,68.76,243,77.52,224,77.52Z"/><path d="M287.16,77.52c-25.08,0-30.72-15.24-30.72-31.8,0-15.84,6.24-31.08,30.6-31.08,21.47,0,27.83,13.56,27.83,30.6,0,1.68,0,2.88-.12,4.56H265.92c.6,12.12,6.12,20.64,21,20.64,12.83,0,17.51-6.36,18.59-12.84h9.36C313.91,68.16,306.83,77.52,287.16,77.52Zm-.84-55.68c-15.6,0-20,9.72-20.4,20.76h39.59C305.51,30.84,300.23,21.84,286.32,21.84Z"/></g></g></svg>